<svg width="50" height="76" viewBox="0 0 50 76" fill="none" xmlns="http://www.w3.org/2000/svg">
<g clip-path="url(#clip0)">
<path d="M34.4337 51.6488C29.6831 58.2096 27.281 65.658 26.1403 73.5839C26.0784 74.014 25.9949 74.4418 25.8993 74.8657C25.7679 75.4484 25.742 76.2283 24.9651 76.2337C24.2012 76.2391 24.1287 75.4999 24.025 74.8951C23.3934 71.2151 22.6914 67.5592 21.5806 63.9773C18.9267 55.42 14.3007 48.5062 6.11552 44.2513C2.2646 42.2494 0.346883 38.9669 0.481883 34.4532C0.638123 29.2363 0.551364 24.0107 0.507984 18.7894C0.473604 14.6566 2.29106 11.6317 5.80898 9.58134C10.4611 6.87 15.1042 4.14138 19.7982 1.50402C23.1541 -0.381304 26.637 -0.420546 30.0013 1.46027C34.7767 4.12985 39.4902 6.91068 44.2188 9.66324C47.6692 11.6719 49.4039 14.7581 49.4718 18.687C49.5648 24.0812 49.5123 29.4782 49.4885 34.8739C49.4703 38.9669 47.6451 42.0929 44.0993 44.0701C40.8102 45.9037 37.8209 48.0916 35.1463 50.7274C34.4918 50.7122 34.2045 50.9808 34.4337 51.6488Z" fill="#CBC539"/>
<path d="M34.4337 51.6488C33.9047 51.5328 33.4287 51.3208 33.839 50.693C34.2335 50.0898 34.7289 50.0162 35.1463 50.7274C34.9087 51.0346 34.6711 51.3417 34.4337 51.6488Z" fill="#CBC539"/>
<path d="M6.13277 26.8205C6.13313 24.5591 6.13637 22.2976 6.13241 20.0363C6.12737 17.2718 7.33229 15.1968 9.71009 13.814C13.6116 11.5451 17.5041 9.25948 21.4402 7.05178C23.8133 5.72068 26.2447 5.75578 28.6285 7.12702C32.4653 9.334 36.3114 11.5257 40.1411 13.7454C42.6992 15.2283 43.8934 17.4891 43.8831 20.4315C43.8682 24.6934 43.8779 28.9553 43.8809 33.2173C43.8831 36.1443 42.7174 38.4155 40.1452 39.9009C36.3868 42.0711 32.6245 44.2349 28.8695 46.4108C26.2233 47.9444 23.598 47.8848 20.9718 46.3641C17.3659 44.2758 13.7723 42.1653 10.1423 40.1196C7.37585 38.5606 6.02549 36.2708 6.12053 33.0825C6.18281 30.9968 6.13241 28.9079 6.13277 26.8205Z" fill="white"/>
<path d="M36.9581 20.4904L35.3152 15.5619C35.2035 15.2263 34.8894 14.9999 34.5357 15H16.4643C16.1106 14.9999 15.7965 15.2263 15.6848 15.5619L14.0419 20.4904C14.0166 20.5672 14.0024 20.6471 14 20.7278C14 20.7361 14 20.7418 14 20.75V21.5715C14.003 22.8585 14.6116 24.069 15.6428 24.8391C15.6428 24.8457 15.6428 24.8506 15.6428 24.8571V35.5357C15.6428 36.8967 16.7461 38 18.1071 38H32.8928C34.2538 38 35.3571 36.8967 35.3571 35.5357V24.8571C35.3571 24.8505 35.3571 24.8456 35.3571 24.8391C36.3884 24.069 36.997 22.8585 37 21.5715V20.75C37 20.7418 37 20.7361 37 20.7278C36.9975 20.6471 36.9834 20.5671 36.9581 20.4904ZM31.25 16.6428H33.9435L35.0393 19.9286H31.25V16.6428ZM26.3214 16.6428H29.6072V19.9286H26.3214V16.6428ZM21.3929 16.6428H24.6786V19.9286H21.3929V16.6428ZM17.0565 16.6428H19.75V19.9286H15.9607L17.0565 16.6428ZM27.1429 36.3571H23.8571V29.7857H27.1429V36.3571ZM33.7143 35.5357C33.7143 35.9894 33.3465 36.3572 32.8928 36.3572H28.7857V28.9643C28.7857 28.5106 28.4179 28.1429 27.9643 28.1429H23.0357C22.582 28.1429 22.2142 28.5106 22.2142 28.9643V36.3572H18.1071C17.6534 36.3572 17.2857 35.9894 17.2857 35.5357V25.5964C18.4385 25.8331 19.6372 25.558 20.5714 24.8424C22.0378 25.9193 24.0336 25.9193 25.5 24.8424C26.9663 25.9193 28.9622 25.9193 30.4285 24.8424C31.3628 25.558 32.5615 25.8331 33.7143 25.5964V35.5357V35.5357ZM32.8928 24.0357C32.1825 24.0353 31.5079 23.7237 31.0471 23.1831C30.7486 22.8415 30.2296 22.8065 29.888 23.105C29.8603 23.1292 29.8342 23.1553 29.81 23.1831C28.8966 24.2025 27.3299 24.2884 26.3105 23.3751C26.2431 23.3146 26.179 23.2505 26.1185 23.1831C25.797 22.8415 25.2595 22.8251 24.9179 23.1466C24.9054 23.1584 24.8932 23.1705 24.8815 23.1831C23.9681 24.2025 22.4013 24.2884 21.3819 23.3751C21.3144 23.3146 21.2504 23.2505 21.1899 23.1831C20.8685 22.8415 20.3309 22.8251 19.9893 23.1466C19.9768 23.1584 19.9646 23.1705 19.9529 23.1831C19.492 23.7237 18.8175 24.0353 18.1071 24.0357C16.7461 24.0357 15.6428 22.9324 15.6428 21.5714H35.3571C35.3571 22.9324 34.2538 24.0357 32.8928 24.0357Z" fill="#CBC539"/>
</g>
<defs>
<clipPath id="clip0">
<rect width="50" height="76" fill="white"/>
</clipPath>
</defs>
</svg>
