<svg width="383" height="320" viewBox="0 0 383 320" fill="none" xmlns="http://www.w3.org/2000/svg">
<g clip-path="url(#clip0)">
<path d="M261.652 -3.39578e-05L0 155.177L7.86899 168.468L269.521 13.2909L261.652 -3.39578e-05Z" fill="#F2F2F2"/>
<path d="M318.521 13.0098L56.8694 168.187L64.7384 181.478L326.39 26.3007L318.521 13.0098Z" fill="#F2F2F2"/>
<path d="M368.891 27.2393L107.239 182.416L115.108 195.707L376.76 40.5302L368.891 27.2393Z" fill="#F2F2F2"/>
<path d="M170.428 181.905C215.671 181.905 252.348 145.197 252.348 99.9149C252.348 54.633 215.671 17.9248 170.428 17.9248C125.184 17.9248 88.5076 54.633 88.5076 99.9149C88.5076 145.197 125.184 181.905 170.428 181.905Z" fill="white"/>
<path d="M87.8982 99.9149C87.8982 54.3692 124.921 17.315 170.428 17.315C215.935 17.315 252.957 54.3692 252.957 99.9149C252.957 145.461 215.935 182.515 170.428 182.515C124.921 182.515 87.8982 145.461 87.8982 99.9149ZM89.1169 99.9149C89.1169 144.788 125.593 181.295 170.428 181.295C215.263 181.295 251.739 144.788 251.739 99.9149C251.739 55.0418 215.263 18.5347 170.428 18.5347C125.593 18.5347 89.1168 55.0418 89.1168 99.9149H89.1169Z" fill="#20252A"/>
<path d="M155.825 100.271C155.825 97.3806 156.681 94.5549 158.286 92.1513C159.89 89.7478 162.171 87.8745 164.839 86.7682C167.508 85.662 170.444 85.3726 173.277 85.9365C176.109 86.5005 178.711 87.8925 180.754 89.9365C182.796 91.9805 184.187 94.5848 184.75 97.4199C185.314 100.255 185.025 103.194 183.919 105.864C182.814 108.535 180.942 110.818 178.541 112.424C176.139 114.03 173.316 114.887 170.428 114.887C166.555 114.887 162.84 113.347 160.102 110.606C157.363 107.865 155.825 104.148 155.825 100.271V100.271ZM170.428 86.3687C166.745 86.3728 163.214 87.8389 160.61 90.4452C158.006 93.0516 156.541 96.5854 156.537 100.271V100.271C156.537 103.021 157.352 105.709 158.878 107.995C160.404 110.282 162.574 112.063 165.112 113.116C167.65 114.168 170.443 114.443 173.138 113.907C175.832 113.37 178.307 112.046 180.25 110.102C182.193 108.158 183.516 105.68 184.052 102.984C184.588 100.287 184.313 97.4914 183.261 94.951C182.21 92.4106 180.429 90.2393 178.145 88.7117C175.861 87.184 173.175 86.3687 170.428 86.3687V86.3687Z" fill="#20252A"/>
<path d="M142.646 100.271C142.646 94.772 144.275 89.3961 147.328 84.8235C150.381 80.251 154.72 76.6871 159.796 74.5826C164.873 72.4781 170.459 71.9274 175.848 73.0003C181.237 74.0732 186.187 76.7214 190.072 80.61C193.958 84.4987 196.604 89.4531 197.675 94.8468C198.747 100.241 198.197 105.831 196.095 110.912C193.992 115.993 190.431 120.335 185.862 123.391C181.294 126.446 175.922 128.077 170.428 128.077C166.779 128.077 163.167 127.357 159.796 125.96C156.425 124.563 153.363 122.515 150.783 119.933C148.203 117.351 146.157 114.285 144.761 110.912C143.365 107.538 142.646 103.923 142.646 100.271V100.271ZM170.428 73.179C165.074 73.179 159.84 74.7679 155.389 77.7449C150.937 80.7218 147.468 84.9531 145.419 89.9035C143.37 94.854 142.834 100.301 143.879 105.557C144.923 110.812 147.501 115.64 151.287 119.429C155.073 123.217 159.896 125.798 165.147 126.843C170.398 127.889 175.84 127.352 180.787 125.301C185.733 123.251 189.961 119.778 192.935 115.323C195.909 110.868 197.497 105.63 197.497 100.271C197.489 93.0885 194.634 86.2021 189.56 81.1231C184.485 76.044 177.604 73.1871 170.428 73.179Z" fill="#CCCCCC"/>
<path d="M116.289 100.271C116.289 89.5546 119.464 79.0785 125.413 70.1679C131.362 61.2573 139.817 54.3123 149.71 50.2112C159.602 46.11 170.488 45.037 180.99 47.1277C191.491 49.2185 201.138 54.3791 208.709 61.9569C216.281 69.5348 221.437 79.1896 223.526 89.7004C225.615 100.211 224.543 111.106 220.445 121.007C216.348 130.908 209.408 139.37 200.505 145.324C191.602 151.278 181.135 154.456 170.428 154.456C156.074 154.44 142.313 148.726 132.164 138.568C122.014 128.41 116.305 114.637 116.289 100.271V100.271ZM170.428 46.7996C159.861 46.7996 149.532 49.9356 140.746 55.8112C131.96 61.6867 125.112 70.0379 121.068 79.8086C117.025 89.5793 115.967 100.331 118.028 110.703C120.09 121.076 125.178 130.603 132.65 138.082C140.121 145.56 149.641 150.652 160.005 152.716C170.368 154.779 181.111 153.72 190.873 149.673C200.635 145.626 208.979 138.772 214.85 129.979C220.72 121.185 223.854 110.847 223.854 100.271C223.838 86.0947 218.204 72.5032 208.188 62.4788C198.172 52.4544 184.592 46.8156 170.428 46.7996V46.7996Z" fill="#CCCCCC"/>
<path d="M170.428 106.688C174.165 106.688 177.195 103.656 177.195 99.9149C177.195 96.1742 174.165 93.1418 170.428 93.1418C166.69 93.1418 163.66 96.1742 163.66 99.9149C163.66 103.656 166.69 106.688 170.428 106.688Z" fill="#00734D"/>
<path d="M152.975 126.294C156.713 126.294 159.742 123.262 159.742 119.521C159.742 115.781 156.713 112.748 152.975 112.748C149.238 112.748 146.208 115.781 146.208 119.521C146.208 123.262 149.238 126.294 152.975 126.294Z" fill="#00734D"/>
<path d="M221.063 123.442C224.801 123.442 227.831 120.41 227.831 116.669C227.831 112.929 224.801 109.896 221.063 109.896C217.326 109.896 214.296 112.929 214.296 116.669C214.296 120.41 217.326 123.442 221.063 123.442Z" fill="#00734D"/>
<path d="M170.428 103.123C172.198 103.123 173.633 101.687 173.633 99.9149C173.633 98.143 172.198 96.7066 170.428 96.7066C168.657 96.7066 167.222 98.143 167.222 99.9149C167.222 101.687 168.657 103.123 170.428 103.123Z" fill="#2F2E41"/>
<path d="M221.063 119.878C222.834 119.878 224.269 118.441 224.269 116.669C224.269 114.897 222.834 113.461 221.063 113.461C219.293 113.461 217.858 114.897 217.858 116.669C217.858 118.441 219.293 119.878 221.063 119.878Z" fill="#2F2E41"/>
<path d="M152.975 123.086C154.746 123.086 156.181 121.65 156.181 119.878C156.181 118.106 154.746 116.669 152.975 116.669C151.205 116.669 149.77 118.106 149.77 119.878C149.77 121.65 151.205 123.086 152.975 123.086Z" fill="#2F2E41"/>
<path d="M20.8344 67.1188C22.6047 67.1188 24.0399 65.6824 24.0399 63.9105C24.0399 62.1386 22.6047 60.7022 20.8344 60.7022C19.064 60.7022 17.6288 62.1386 17.6288 63.9105C17.6288 65.6824 19.064 67.1188 20.8344 67.1188Z" fill="#00734D"/>
<path d="M170.249 64.089H29.5603V63.376H170.962V100.093H170.249V64.089Z" fill="#2F2E41"/>
<path d="M11.5737 63.9105C11.5737 62.0774 12.1168 60.2854 13.1344 58.7612C14.152 57.2371 15.5983 56.0491 17.2904 55.3476C18.9825 54.6461 20.8445 54.4625 22.6409 54.8202C24.4373 55.1778 26.0874 56.0605 27.3825 57.3567C28.6776 58.6529 29.5596 60.3044 29.9169 62.1023C30.2742 63.9002 30.0908 65.7638 29.3899 67.4574C28.689 69.151 27.5021 70.5985 25.9792 71.6169C24.4563 72.6354 22.6659 73.179 20.8343 73.179C19.6182 73.179 18.414 72.9392 17.2904 72.4735C16.1669 72.0077 15.146 71.325 14.2861 70.4643C13.4262 69.6037 12.744 68.5819 12.2786 67.4574C11.8133 66.3329 11.5737 65.1277 11.5737 63.9105V63.9105ZM20.8343 55.355C19.1436 55.355 17.4909 55.8568 16.0852 56.7969C14.6794 57.737 13.5838 59.0732 12.9368 60.6365C12.2898 62.1998 12.1205 63.92 12.4503 65.5796C12.7802 67.2392 13.5943 68.7637 14.7898 69.9602C15.9853 71.1567 17.5084 71.9715 19.1666 72.3016C20.8248 72.6317 22.5435 72.4623 24.1055 71.8148C25.6675 71.1672 27.0025 70.0706 27.9418 68.6637C28.8811 67.2568 29.3825 65.6026 29.3825 63.9105C29.3799 61.6423 28.4784 59.4677 26.8759 57.8638C25.2734 56.2599 23.1006 55.3576 20.8343 55.355V55.355Z" fill="#2F2E41"/>
<path d="M42.2048 159.447C43.9752 159.447 45.4104 158.01 45.4104 156.238C45.4104 154.467 43.9752 153.03 42.2048 153.03C40.4344 153.03 38.9993 154.467 38.9993 156.238C38.9993 158.01 40.4344 159.447 42.2048 159.447Z" fill="#00734D"/>
<path d="M32.9443 156.238C32.9443 154.405 33.4875 152.613 34.505 151.089C35.5226 149.565 36.9689 148.377 38.661 147.676C40.3532 146.974 42.2151 146.791 44.0115 147.148C45.8079 147.506 47.4579 148.388 48.7531 149.685C50.0482 150.981 50.9302 152.632 51.2875 154.43C51.6448 156.228 51.4614 158.092 50.7605 159.785C50.0596 161.479 48.8726 162.926 47.3498 163.945C45.8269 164.963 44.0364 165.507 42.2049 165.507C39.7488 165.507 37.3934 164.53 35.6567 162.792C33.92 161.054 32.9443 158.697 32.9443 156.238V156.238ZM42.2049 147.683C40.5142 147.683 38.8615 148.185 37.4558 149.125C36.05 150.065 34.9544 151.401 34.3074 152.964C33.6604 154.528 33.4911 156.248 33.8209 157.908C34.1508 159.567 34.9649 161.092 36.1604 162.288C37.3559 163.485 38.879 164.299 40.5372 164.63C42.1954 164.96 43.9141 164.79 45.4761 164.143C47.0381 163.495 48.3731 162.399 49.3124 160.992C50.2517 159.585 50.753 157.931 50.7531 156.238C50.7505 153.97 49.849 151.796 48.2465 150.192C46.6439 148.588 44.4712 147.686 42.2049 147.683Z" fill="#2F2E41"/>
<path d="M320.436 82.0909C322.206 82.0909 323.641 80.6545 323.641 78.8826C323.641 77.1107 322.206 75.6743 320.436 75.6743C318.666 75.6743 317.23 77.1107 317.23 78.8826C317.23 80.6545 318.666 82.0909 320.436 82.0909Z" fill="#00734D"/>
<path d="M311.175 78.8826C311.175 77.0495 311.718 75.2575 312.736 73.7333C313.754 72.2092 315.2 71.0212 316.892 70.3197C318.584 69.6182 320.446 69.4346 322.243 69.7923C324.039 70.1499 325.689 71.0326 326.984 72.3288C328.279 73.6251 329.161 75.2765 329.518 77.0744C329.876 78.8723 329.692 80.7359 328.992 82.4295C328.291 84.1231 327.104 85.5706 325.581 86.5891C324.058 87.6075 322.267 88.1511 320.436 88.1511C319.22 88.1511 318.016 87.9113 316.892 87.4456C315.768 86.9798 314.748 86.2971 313.888 85.4364C313.028 84.5758 312.346 83.554 311.88 82.4295C311.415 81.305 311.175 80.0998 311.175 78.8826V78.8826ZM320.436 70.3272C318.17 70.3298 315.997 71.232 314.394 72.8359C312.792 74.4398 311.89 76.6144 311.888 78.8826V78.8826C311.888 80.5747 312.389 82.2289 313.328 83.6358C314.268 85.0427 315.603 86.1393 317.165 86.7869C318.727 87.4344 320.445 87.6038 322.104 87.2737C323.762 86.9436 325.285 86.1288 326.48 84.9323C327.676 83.7357 328.49 82.2113 328.82 80.5517C329.15 78.8921 328.98 77.1719 328.333 75.6086C327.686 74.0453 326.591 72.7091 325.185 71.769C323.779 70.8289 322.127 70.3271 320.436 70.3271V70.3272Z" fill="#2F2E41"/>
<path d="M220.707 79.9575L311.526 78.5263L311.537 79.2388L221.419 80.6594V116.669H220.707V79.9575Z" fill="#2F2E41"/>
<path d="M51.1095 155.882H152.619V119.878H153.331V156.595H51.1095V155.882Z" fill="#2F2E41"/>
<path d="M40.424 80.665H1.24475V83.1604H40.424V80.665Z" fill="#CCCCCC"/>
<path d="M40.424 87.7946H1.24475V90.2899H40.424V87.7946Z" fill="#CCCCCC"/>
<path d="M40.424 94.9242H1.24475V97.4195H40.424V94.9242Z" fill="#CCCCCC"/>
<path d="M61.7945 172.993H22.6152V175.488H61.7945V172.993Z" fill="#CCCCCC"/>
<path d="M61.7945 180.123H22.6152V182.618H61.7945V180.123Z" fill="#CCCCCC"/>
<path d="M61.7945 187.252H22.6152V189.747H61.7945V187.252Z" fill="#CCCCCC"/>
<path d="M340.026 95.9936H300.846V98.489H340.026V95.9936Z" fill="#CCCCCC"/>
<path d="M340.026 103.123H300.846V105.619H340.026V103.123Z" fill="#CCCCCC"/>
<path d="M340.026 110.253H300.846V112.748H340.026V110.253Z" fill="#CCCCCC"/>
<path d="M358.677 308.599L353.105 310.592L342.773 290.031L350.997 287.089L358.677 308.599Z" fill="#FFB8B8"/>
<path d="M344.062 319.922L343.981 319.695C343.321 317.839 343.423 315.796 344.265 314.015C345.108 312.234 346.622 310.86 348.475 310.195L359.448 306.27L362.028 313.496L344.062 319.922Z" fill="#2F2E41"/>
<path d="M322.445 314.115L316.528 314.114L313.713 291.272L322.446 291.272L322.445 314.115Z" fill="#FFB8B8"/>
<path d="M323.954 319.855L304.875 319.854V319.613C304.875 318.637 305.067 317.67 305.44 316.769C305.813 315.867 306.36 315.048 307.05 314.357C307.74 313.667 308.558 313.12 309.459 312.746C310.36 312.373 311.326 312.181 312.301 312.181H312.302L323.954 312.181L323.954 319.855Z" fill="#2F2E41"/>
<path d="M335.93 168.182L333.357 163.093C333.357 163.093 323.77 165.497 322.899 171.057L335.93 168.182Z" fill="#00734D"/>
<path d="M346.548 226.372L339.55 265.457L358.131 298.346L347.03 302.693L328.208 270.812L325.794 262.117L324.347 307.524L314.335 307.219L309.745 264.821L317.107 225.406L346.548 226.372Z" fill="#2F2E41"/>
<path d="M313.124 233.423C312.906 232.455 312.284 202.907 312.284 202.907C312.284 202.907 322.576 169.09 322.67 168.812L322.707 168.704L330.521 165.771C330.631 165.721 333.234 164.56 335.365 165.528C335.911 165.794 336.393 166.176 336.776 166.648C337.16 167.12 337.436 167.67 337.585 168.259C338.471 168.92 344.858 176.081 344.858 185.794L345.1 208.714L350.454 233.562L350.218 233.612C350.071 233.643 343.544 235.611 333.263 235.611C327.551 235.611 313.124 233.423 313.124 233.423Z" fill="#20252A"/>
<path d="M325.364 161.491C331.197 161.491 335.925 156.758 335.925 150.92C335.925 145.082 331.197 140.35 325.364 140.35C319.531 140.35 314.802 145.082 314.802 150.92C314.802 156.758 319.531 161.491 325.364 161.491Z" fill="#FFB8B8"/>
<path opacity="0.2" d="M340.41 197.489L321.933 223.291L319.205 211.242L340.41 197.489Z" fill="black"/>
<path d="M307.617 223.847C308.279 223.821 308.927 223.65 309.516 223.346C310.104 223.041 310.619 222.612 311.024 222.087C311.429 221.562 311.714 220.955 311.859 220.307C312.004 219.66 312.006 218.989 311.864 218.342L325.593 209.913L318.012 206.363L306.136 214.912C305.065 215.223 304.145 215.916 303.551 216.861C302.956 217.806 302.728 218.936 302.911 220.037C303.093 221.139 303.673 222.135 304.54 222.837C305.408 223.54 306.502 223.899 307.617 223.847V223.847Z" fill="#FFB8B8"/>
<path d="M317.107 206.567L312.405 209.865L316.393 216.953L321.933 212.364L317.107 206.567Z" fill="#00734D"/>
<path d="M314.645 206.775L325.706 193.944L321.468 176.246C321.03 174.417 321.272 172.49 322.149 170.827C323.026 169.164 324.478 167.876 326.234 167.206C327.989 166.535 329.929 166.527 331.69 167.183C333.451 167.839 334.914 169.114 335.805 170.77L335.901 170.949L339.806 197.231L320.185 217.36L314.645 206.775Z" fill="#20252A"/>
<path d="M334.36 160.098L325.594 160.413C325.06 160.432 323.609 154.66 323.419 153.463C323.269 152.683 322.841 151.985 322.214 151.499C321.588 151.012 320.805 150.771 320.014 150.819C319.357 150.881 317.703 149.654 315.995 148.202C312.754 145.443 312.922 140.263 316.483 137.932C316.581 137.868 316.676 137.81 316.77 137.758C319.016 136.499 321.644 136.077 324.218 136.044C326.552 136.015 328.952 136.309 331.007 137.415C334.693 139.396 336.655 143.727 336.827 147.911C336.999 152.095 335.659 156.186 334.138 160.087" fill="#2F2E41"/>
<path d="M382.517 320H275.855C275.727 320 275.605 319.949 275.514 319.859C275.424 319.768 275.373 319.645 275.373 319.517C275.373 319.389 275.424 319.266 275.514 319.175C275.605 319.085 275.727 319.034 275.855 319.034H382.517C382.645 319.034 382.768 319.085 382.859 319.175C382.949 319.266 383 319.389 383 319.517C383 319.645 382.949 319.768 382.859 319.859C382.768 319.949 382.645 320 382.517 320Z" fill="#20252A"/>
</g>
<defs>
<clipPath id="clip0">
<rect width="383" height="320" fill="white"/>
</clipPath>
</defs>
</svg>
