<svg width="309" height="220" viewBox="0 0 309 220" fill="none" xmlns="http://www.w3.org/2000/svg">
<path d="M307.298 204.442C307.264 204.533 307.196 204.606 307.108 204.646C307.021 204.686 306.921 204.69 306.83 204.656L17.9114 97.1162C17.8213 97.0824 17.7482 97.0142 17.7082 96.9266C17.6682 96.839 17.6647 96.7391 17.6982 96.6489C17.7318 96.5586 17.7998 96.4854 17.8873 96.4452C17.9748 96.405 18.0747 96.4012 18.165 96.4346L307.084 203.975C307.174 204.009 307.247 204.077 307.287 204.164C307.327 204.252 307.331 204.352 307.298 204.442V204.442Z" fill="#F2F2F2"/>
<path d="M153.393 0H84.5479C79.1473 0.00611254 73.9698 2.1548 70.151 5.97467C66.3323 9.79454 64.1842 14.9736 64.1781 20.3757V26.6004C64.0368 26.5615 63.8884 26.556 63.7446 26.5843C63.6008 26.6126 63.4656 26.6739 63.3495 26.7635C63.2335 26.8531 63.1399 26.9684 63.0761 27.1003C63.0122 27.2323 62.98 27.3773 62.9818 27.5239V32.3106C62.98 32.4572 63.0122 32.6022 63.0761 32.7342C63.1399 32.8661 63.2335 32.9815 63.3495 33.071C63.4656 33.1606 63.6008 33.2219 63.7446 33.2503C63.8884 33.2786 64.0368 33.2731 64.1781 33.2342V40.482C64.0368 40.4431 63.8884 40.4375 63.7446 40.4659C63.6008 40.4942 63.4655 40.5555 63.3495 40.6451C63.2335 40.7346 63.1399 40.85 63.0761 40.9819C63.0122 41.1139 62.9799 41.2589 62.9818 41.4055V53.3724C62.9799 53.519 63.0122 53.664 63.0761 53.796C63.1399 53.9279 63.2335 54.0432 63.3495 54.1328C63.4655 54.2224 63.6008 54.2837 63.7446 54.312C63.8884 54.3403 64.0368 54.3348 64.1781 54.2959V58.6717C64.0368 58.6328 63.8884 58.6272 63.7446 58.6555C63.6008 58.6838 63.4655 58.7452 63.3495 58.8348C63.2335 58.9243 63.1399 59.0396 63.0761 59.1716C63.0122 59.3036 62.9799 59.4486 62.9818 59.5952V71.5621C62.9799 71.7087 63.0122 71.8537 63.0761 71.9856C63.1399 72.1176 63.2335 72.2329 63.3495 72.3225C63.4655 72.4121 63.6008 72.4734 63.7446 72.5017C63.8884 72.53 64.0368 72.5245 64.1781 72.4856V198.858C64.1842 204.26 66.3323 209.439 70.151 213.259C73.9698 217.079 79.1473 219.227 84.5479 219.234H153.393C158.793 219.227 163.971 217.079 167.79 213.259C171.608 209.439 173.757 204.26 173.763 198.858V20.3757C173.757 14.9736 171.608 9.79454 167.79 5.97467C163.971 2.1548 158.793 0.00611254 153.393 0V0ZM169.456 198.858C169.451 203.118 167.757 207.202 164.746 210.214C161.734 213.226 157.652 214.921 153.393 214.925H84.5479C80.2892 214.921 76.2063 213.226 73.195 210.214C70.1837 207.202 68.4898 203.118 68.4849 198.858V20.3757C68.4898 16.1158 70.1837 12.0318 73.195 9.01953C76.2063 6.00731 80.2892 4.31292 84.5479 4.30808H153.393C157.652 4.31291 161.734 6.0073 164.746 9.01953C167.757 12.0318 169.451 16.1158 169.456 20.3757V198.858Z" fill="#20252A"/>
<path d="M153.393 217.319H84.5479C79.6549 217.313 74.9638 215.367 71.5039 211.906C68.044 208.445 66.0978 203.752 66.0923 198.858V20.3757C66.0978 15.4813 68.044 10.7889 71.5039 7.32794C74.9638 3.86703 79.6549 1.92024 84.5479 1.91469H153.393C158.286 1.92024 162.977 3.86702 166.437 7.32794C169.897 10.7889 171.843 15.4813 171.849 20.3757V198.858C171.843 203.752 169.897 208.445 166.437 211.906C162.977 215.367 158.286 217.313 153.393 217.319V217.319Z" fill="#E6E6E6"/>
<path d="M155.094 214.447H82.8466C79.5465 214.443 76.3826 213.13 74.049 210.796C71.7155 208.462 70.4028 205.297 70.399 201.996V17.2379C70.4028 13.9368 71.7154 10.772 74.049 8.43775C76.3825 6.10351 79.5464 4.7905 82.8466 4.78675H92.2685C92.8139 4.78738 93.3369 5.0044 93.7225 5.39021C94.1082 5.77602 94.3252 6.29912 94.3258 6.84473C94.3276 8.45657 94.9685 10.0019 96.1079 11.1416C97.2473 12.2813 98.7922 12.9224 100.404 12.9242H136.58C138.191 12.9224 139.736 12.2814 140.876 11.1416C142.015 10.0019 142.656 8.45656 142.658 6.84472C142.658 6.29911 142.875 5.77602 143.261 5.39021C143.647 5.00439 144.17 4.78737 144.715 4.78674H155.094C158.394 4.79048 161.558 6.1035 163.892 8.43773C166.225 10.772 167.538 13.9368 167.542 17.2379V201.996C167.538 205.297 166.225 208.462 163.892 210.796C161.558 213.13 158.394 214.443 155.094 214.447V214.447Z" fill="white"/>
<path d="M122.081 8.97517H113.467C113.213 8.97517 112.97 8.87431 112.791 8.69477C112.611 8.51523 112.51 8.27173 112.51 8.01782C112.51 7.76392 112.611 7.52041 112.791 7.34087C112.97 7.16133 113.213 7.06047 113.467 7.06047H122.081C122.335 7.06047 122.578 7.16133 122.758 7.34087C122.937 7.52041 123.038 7.76392 123.038 8.01782C123.038 8.27173 122.937 8.51523 122.758 8.69477C122.578 8.87431 122.335 8.97517 122.081 8.97517V8.97517Z" fill="white"/>
<path d="M128.063 8.73583C128.327 8.73583 128.541 8.52152 128.541 8.25715C128.541 7.99279 128.327 7.77848 128.063 7.77848C127.798 7.77848 127.584 7.99279 127.584 8.25715C127.584 8.52152 127.798 8.73583 128.063 8.73583Z" fill="white"/>
<path d="M169.869 42.1818H67.9764V43.2727H169.869V42.1818Z" fill="#E6E6E6"/>
<path d="M169.869 64H67.9764V65.0909H169.869V64Z" fill="#E6E6E6"/>
<path d="M169.869 109.091H67.9764V110.182H169.869V109.091Z" fill="#E6E6E6"/>
<path d="M169.869 154.182H67.9764V155.273H169.869V154.182Z" fill="#E6E6E6"/>
<path d="M169.869 189.455H67.9764V190.545H169.869V189.455Z" fill="#E6E6E6"/>
<path d="M141.973 42.7273H140.883V109.636H141.973V42.7273Z" fill="#E6E6E6"/>
<path d="M90.9647 109.617H89.8741V190H90.9647V109.617Z" fill="#E6E6E6"/>
<path d="M167.542 131.666H90.4194V132.757H167.542V131.666Z" fill="#E6E6E6"/>
<path d="M142.091 190H141V214.447H142.091V190Z" fill="#E6E6E6"/>
<path d="M141.246 86.9922H70.2173V88.0831H141.246V86.9922Z" fill="#E6E6E6"/>
<path d="M85.0509 4.09747L84.0448 4.51864L100.118 42.9378L101.124 42.5167L85.0509 4.09747Z" fill="#E6E6E6"/>
<path d="M134.554 12.9242H133.463V42.7273H134.554V12.9242Z" fill="#E6E6E6"/>
<path d="M162.676 59.2727C162.676 69.0474 147.568 91.824 143.153 98.2715C143.019 98.4664 142.841 98.6259 142.632 98.7361C142.423 98.8463 142.191 98.9039 141.955 98.9039C141.719 98.9039 141.486 98.8463 141.277 98.7361C141.069 98.6259 140.89 98.4664 140.757 98.2715C136.342 91.824 121.234 69.0474 121.234 59.2727C121.234 53.7755 123.417 48.5035 127.303 44.6163C131.189 40.7292 136.459 38.5455 141.955 38.5455C147.45 38.5455 152.721 40.7292 156.607 44.6163C160.493 48.5035 162.676 53.7755 162.676 59.2727Z" fill="#00734D"/>
<path d="M141.955 68.3636C147.777 68.3636 152.497 63.6423 152.497 57.8182C152.497 51.9941 147.777 47.2727 141.955 47.2727C136.132 47.2727 131.412 51.9941 131.412 57.8182C131.412 63.6423 136.132 68.3636 141.955 68.3636Z" fill="white"/>
<path d="M141.264 109.95L101.339 189.744L102.314 190.232L142.239 110.438L141.264 109.95Z" fill="#E6E6E6"/>
<path d="M198.763 127.502C199.234 127.755 199.754 127.902 200.288 127.932C200.821 127.962 201.355 127.875 201.851 127.676C202.347 127.478 202.794 127.173 203.16 126.783C203.525 126.393 203.801 125.928 203.968 125.42L216.956 125.195L213.143 119.623L201.393 120.691C200.522 120.468 199.599 120.572 198.799 120.984C197.999 121.397 197.378 122.088 197.054 122.928C196.73 123.767 196.724 124.697 197.039 125.54C197.355 126.383 197.968 127.081 198.763 127.502H198.763Z" fill="#FFB8B8"/>
<path d="M206.56 127.34C206.359 127.34 206.16 127.299 205.975 127.22C205.79 127.141 205.622 127.025 205.483 126.879C205.344 126.734 205.236 126.562 205.165 126.373C205.094 126.185 205.062 125.984 205.071 125.783L205.333 119.825C205.347 119.47 205.488 119.132 205.73 118.873C205.972 118.613 206.3 118.449 206.652 118.41L221.699 116.683L221.195 126.611L206.634 127.338C206.609 127.339 206.585 127.34 206.56 127.34Z" fill="#00734D"/>
<path d="M224.886 209.002L220.649 210.386L213.296 194.699L219.549 192.656L224.886 209.002Z" fill="#FFB8B8"/>
<path d="M227.308 212.757L213.647 217.219L213.591 217.047C213.363 216.348 213.275 215.612 213.331 214.879C213.388 214.147 213.588 213.432 213.92 212.777C214.253 212.122 214.711 211.539 215.269 211.061C215.826 210.583 216.473 210.219 217.171 209.991L217.172 209.991L225.515 207.265L227.308 212.757Z" fill="#2F2E41"/>
<path d="M237.364 215.562L232.907 215.562L230.787 198.366L237.365 198.367L237.364 215.562Z" fill="#FFB8B8"/>
<path d="M238.501 219.884L224.13 219.883V219.701C224.13 218.967 224.275 218.239 224.556 217.56C224.837 216.881 225.249 216.265 225.769 215.745C226.288 215.225 226.905 214.813 227.583 214.532C228.262 214.251 228.989 214.106 229.724 214.106H229.724L238.501 214.107L238.501 219.884Z" fill="#2F2E41"/>
<path d="M230.595 211.377C230.231 211.376 229.879 211.243 229.607 211.001C229.334 210.759 229.16 210.425 229.116 210.063L223.37 162.01L214.959 175.517L224.828 200.745C224.962 201.094 224.961 201.48 224.826 201.828C224.69 202.176 224.43 202.462 224.095 202.628L215.723 206.726C215.532 206.819 215.323 206.871 215.111 206.877C214.898 206.883 214.686 206.843 214.49 206.761C214.294 206.678 214.118 206.555 213.974 206.399C213.829 206.242 213.72 206.057 213.653 205.855L204.375 177.816C203.676 175.705 203.585 173.441 204.112 171.281L210.111 146.655L210.181 146.617L223.704 139.208L223.781 139.236L239.707 145.05L238.04 176.62L239.251 209.387C239.268 209.776 239.13 210.156 238.869 210.445C238.607 210.734 238.243 210.908 237.854 210.93L230.688 211.374C230.657 211.376 230.626 211.377 230.595 211.377Z" fill="#2F2E41"/>
<path d="M221.823 156.013C219.443 156.013 217.439 155.335 216.185 153.612L216.144 153.556L216.956 145.038L209.738 149.046C209.588 149.129 209.417 149.164 209.246 149.146C209.076 149.129 208.915 149.059 208.786 148.947C208.656 148.836 208.564 148.687 208.522 148.521C208.479 148.355 208.489 148.18 208.549 148.02L217.551 124.107L223.495 104.628C223.789 103.069 224.551 101.637 225.677 100.52C226.804 99.4033 228.244 98.6553 229.805 98.3752V98.3752C235.1 97.4023 238.253 99.1894 241.895 103.155C242.775 104.12 243.424 105.274 243.791 106.527C244.158 107.781 244.234 109.103 244.013 110.39L240.568 130.085L241.58 147.743C241.657 148.048 241.636 148.369 241.52 148.661C241.404 148.953 241.199 149.2 240.934 149.368C238.118 151.161 229.485 156.012 221.823 156.013Z" fill="#00734D"/>
<path d="M233.869 95.4258C238.8 95.4258 242.797 91.4271 242.797 86.4945C242.797 81.5619 238.8 77.5632 233.869 77.5632C228.937 77.5632 224.94 81.5619 224.94 86.4945C224.94 91.4271 228.937 95.4258 233.869 95.4258Z" fill="#FFB8B8"/>
<path d="M236.194 150.159C236.68 149.936 237.111 149.61 237.457 149.202C237.803 148.795 238.055 148.316 238.197 147.801C238.338 147.285 238.364 146.745 238.274 146.218C238.184 145.691 237.979 145.19 237.675 144.751L245.332 134.254L238.589 133.934L232.351 143.951C231.647 144.512 231.174 145.312 231.02 146.198C230.866 147.085 231.043 147.998 231.516 148.763C231.99 149.528 232.728 150.093 233.59 150.35C234.452 150.607 235.379 150.539 236.194 150.159V150.159Z" fill="#FFB8B8"/>
<path d="M240.341 144.236C239.968 144.289 239.588 144.198 239.278 143.983L234.209 140.446C233.904 140.236 233.689 139.918 233.606 139.557C233.524 139.195 233.579 138.816 233.762 138.494L242.787 122.431L233.71 111.502C233.233 110.928 232.881 110.261 232.676 109.544C232.471 108.826 232.418 108.074 232.52 107.335C232.621 106.595 232.876 105.885 233.266 105.25C233.657 104.614 234.176 104.067 234.79 103.643C235.404 103.219 236.099 102.928 236.832 102.787C237.564 102.647 238.318 102.66 239.045 102.827C239.772 102.994 240.457 103.31 241.055 103.756C241.653 104.202 242.152 104.768 242.519 105.417L252.542 123.112C252.613 123.238 252.65 123.38 252.65 123.524C252.65 123.669 252.613 123.811 252.542 123.937L241.426 143.496C241.324 143.677 241.185 143.833 241.018 143.957C240.852 144.08 240.661 144.168 240.459 144.214C240.42 144.223 240.381 144.23 240.341 144.236Z" fill="#00734D"/>
<path d="M230.3 85.3544C229.417 84.6945 228.193 84.7975 227.146 84.4516C226.523 84.2457 225.964 83.8795 225.527 83.3896C225.09 82.8997 224.789 82.3035 224.655 81.6606C224.521 81.0178 224.558 80.3509 224.763 79.727C224.967 79.103 225.332 78.5438 225.821 78.1055C226.952 77.0919 228.561 76.8619 230.068 76.6764C232.133 76.4223 234.218 76.1679 236.288 76.3699C238.358 76.5719 240.443 77.2715 241.956 78.6992C243.625 80.2734 244.446 82.6168 244.452 84.9111C244.394 87.2162 243.761 89.4702 242.611 91.4688C242.256 92.2282 241.72 92.8891 241.051 93.3939C240.355 93.8538 239.373 93.9741 238.703 93.4775C238.123 93.0483 237.911 92.2964 237.649 91.6242C237.387 90.952 236.94 90.236 236.226 90.1323C235.307 89.9987 234.606 90.9336 233.729 91.2395C232.502 91.6674 231.139 90.7211 230.639 89.5218C230.139 88.3225 230.27 86.9657 230.411 85.6738" fill="#2F2E41"/>
<path d="M309 219.636C309 219.733 308.961 219.825 308.893 219.893C308.825 219.961 308.733 220 308.636 220H0.363529C0.267115 220 0.17465 219.962 0.106475 219.893C0.0383 219.825 0 219.733 0 219.636C0 219.54 0.0383 219.447 0.106475 219.379C0.17465 219.311 0.267115 219.273 0.363529 219.273H308.636C308.733 219.273 308.825 219.311 308.893 219.38C308.961 219.448 309 219.54 309 219.636Z" fill="#CCCCCC"/>
<path d="M141.955 114.182C144.565 114.182 146.681 112.065 146.681 109.455C146.681 106.844 144.565 104.727 141.955 104.727C139.345 104.727 137.229 106.844 137.229 109.455C137.229 112.065 139.345 114.182 141.955 114.182Z" fill="#00734D"/>
<path d="M208.488 57.7677C206.514 60.3989 197.848 63.4776 195.358 64.3212C195.282 64.3467 195.202 64.3535 195.124 64.341C195.045 64.3285 194.971 64.297 194.907 64.2494C194.844 64.2017 194.793 64.1392 194.759 64.0674C194.725 63.9955 194.709 63.9165 194.713 63.8371C194.826 61.2095 195.358 52.0259 197.332 49.3946C198.442 47.9149 200.094 46.9368 201.925 46.6755C203.756 46.4143 205.616 46.8913 207.095 48.0017C208.574 49.112 209.552 50.7647 209.813 52.5962C210.075 54.4277 209.598 56.2879 208.488 57.7677V57.7677Z" fill="#F2F2F2"/>
<path d="M203.203 56.7386C205.163 56.7386 206.751 55.1497 206.751 53.1896C206.751 51.2296 205.163 49.6407 203.203 49.6407C201.244 49.6407 199.656 51.2296 199.656 53.1896C199.656 55.1497 201.244 56.7386 203.203 56.7386Z" fill="white"/>
<path d="M192.777 68.6804C193.655 68.6804 194.367 67.9681 194.367 67.0895C194.367 66.2108 193.655 65.4986 192.777 65.4986C191.899 65.4986 191.187 66.2108 191.187 67.0895C191.187 67.9681 191.899 68.6804 192.777 68.6804Z" fill="#F2F2F2"/>
<path d="M35.5085 129.942C38.4128 134.381 38.32 149.215 38.2308 153.455C38.2283 153.583 38.1945 153.709 38.1324 153.821C38.0704 153.933 37.9819 154.028 37.8747 154.098C37.7676 154.169 37.6449 154.212 37.5174 154.224C37.3898 154.236 37.2613 154.216 37.1429 154.167C33.2223 152.552 19.5943 146.701 16.69 142.263C15.8801 141.027 15.3216 139.643 15.0465 138.191C14.7713 136.739 14.7849 135.247 15.0864 133.801C15.3879 132.354 15.9714 130.981 16.8037 129.76C17.6359 128.539 18.7005 127.494 19.9366 126.684C21.1728 125.875 22.5563 125.317 24.008 125.043C25.4597 124.769 26.9512 124.783 28.3973 125.086C29.8435 125.388 31.2158 125.973 32.436 126.806C33.6561 127.639 34.7002 128.705 35.5085 129.942V129.942Z" fill="#F2F2F2"/>
<path d="M25.6671 141.165C28.827 141.165 31.3885 138.603 31.3885 135.442C31.3885 132.281 28.827 129.719 25.6671 129.719C22.5072 129.719 19.9457 132.281 19.9457 135.442C19.9457 138.603 22.5072 141.165 25.6671 141.165Z" fill="white"/>
<path d="M41.0096 161.455C42.4261 161.455 43.5744 160.306 43.5744 158.889C43.5744 157.472 42.4261 156.324 41.0096 156.324C39.5931 156.324 38.4448 157.472 38.4448 158.889C38.4448 160.306 39.5931 161.455 41.0096 161.455Z" fill="#F2F2F2"/>
</svg>
