<svg width="187" height="178" viewBox="0 0 187 178" fill="none" xmlns="http://www.w3.org/2000/svg">
<g clip-path="url(#clip0)">
<path d="M113.681 42.2368H112.708V15.4839C112.708 11.3773 111.081 7.43891 108.186 4.53513C105.291 1.63134 101.364 5.18169e-06 97.27 0H40.7593C38.732 -5.13134e-06 36.7245 0.400491 34.8515 1.17862C32.9785 1.95676 31.2767 3.09728 29.8432 4.53509C28.4096 5.9729 27.2725 7.67982 26.4967 9.55841C25.7209 11.437 25.3215 13.4505 25.3215 15.4838V162.252C25.3215 164.286 25.7208 166.299 26.4967 168.178C27.2725 170.056 28.4096 171.763 29.8431 173.201C31.2766 174.639 32.9785 175.779 34.8515 176.558C36.7245 177.336 38.7319 177.736 40.7592 177.736H97.2699C101.364 177.736 105.291 176.105 108.186 173.201C111.081 170.297 112.708 166.359 112.708 162.252V61.2799H113.681L113.681 42.2368Z" fill="#E6E6E6"/>
<path d="M97.8929 4.02838H90.5164C90.8557 4.86254 90.9851 5.76757 90.8935 6.66375C90.8018 7.55993 90.4918 8.41975 89.9908 9.16746C89.4898 9.91518 88.8132 10.5278 88.0205 10.9515C87.2278 11.3751 86.3434 11.5967 85.4452 11.5968H53.071C52.1728 11.5967 51.2884 11.3751 50.4957 10.9515C49.703 10.5278 49.0264 9.91518 48.5254 9.16747C48.0244 8.41975 47.7144 7.55993 47.6227 6.66375C47.5311 5.76757 47.6606 4.86254 47.9998 4.02838H41.1101C38.0525 4.02838 35.1202 5.24663 32.9581 7.41514C30.7961 9.58365 29.5814 12.5248 29.5814 15.5915V162.145C29.5814 163.663 29.8796 165.167 30.459 166.57C31.0384 167.973 31.8876 169.247 32.9581 170.321C34.0286 171.395 35.2996 172.247 36.6983 172.828C38.097 173.409 39.5962 173.708 41.1101 173.708H97.8929C99.4069 173.708 100.906 173.409 102.305 172.828C103.704 172.247 104.974 171.395 106.045 170.321C107.116 169.247 107.965 167.973 108.544 166.57C109.123 165.167 109.422 163.663 109.422 162.145V162.145V15.5915C109.422 14.073 109.123 12.5694 108.544 11.1665C107.965 9.76359 107.116 8.48888 106.045 7.41514C104.974 6.3414 103.704 5.48967 102.305 4.90857C100.906 4.32747 99.4069 4.02838 97.8929 4.02838V4.02838Z" fill="white"/>
<path d="M186.757 178H0.24349C0.178912 178 0.116979 177.974 0.0713163 177.928C0.0256531 177.883 0 177.821 0 177.756C0 177.691 0.0256531 177.629 0.0713163 177.583C0.116979 177.537 0.178912 177.512 0.24349 177.512H186.757C186.821 177.512 186.883 177.537 186.929 177.583C186.974 177.629 187 177.691 187 177.756C187 177.821 186.974 177.883 186.929 177.928C186.883 177.974 186.821 178 186.757 178Z" fill="#20252A"/>
<path d="M103.926 44.5706H35.0494C34.7113 44.5702 34.3871 44.4353 34.148 44.1955C33.9088 43.9557 33.7743 43.6305 33.7739 43.2913V26.1548C33.7743 25.8157 33.9088 25.4905 34.148 25.2507C34.3871 25.0108 34.7113 24.8759 35.0494 24.8755H103.926C104.264 24.8759 104.589 25.0108 104.828 25.2507C105.067 25.4905 105.201 25.8157 105.202 26.1548V43.2913C105.201 43.6305 105.067 43.9557 104.828 44.1955C104.589 44.4353 104.264 44.5702 103.926 44.5706V44.5706ZM35.0494 25.3872C34.8465 25.3875 34.652 25.4684 34.5085 25.6123C34.365 25.7562 34.2843 25.9513 34.2841 26.1548V43.2913C34.2843 43.4949 34.365 43.69 34.5085 43.8339C34.652 43.9778 34.8465 44.0587 35.0494 44.0589H103.926C104.129 44.0587 104.324 43.9778 104.467 43.8339C104.611 43.69 104.691 43.4949 104.692 43.2913V26.1548C104.691 25.9513 104.611 25.7562 104.467 25.6123C104.324 25.4684 104.129 25.3875 103.926 25.3872H35.0494Z" fill="#20252A"/>
<path d="M103.926 112.374H35.0494C34.7113 112.374 34.3871 112.239 34.148 111.999C33.9088 111.759 33.7743 111.434 33.7739 111.095V79.3741C33.7743 79.0349 33.9088 78.7098 34.148 78.4699C34.3871 78.2301 34.7113 78.0952 35.0494 78.0948H103.926C104.264 78.0952 104.589 78.2301 104.828 78.4699C105.067 78.7098 105.201 79.0349 105.202 79.3741V111.095C105.201 111.434 105.067 111.759 104.828 111.999C104.589 112.239 104.264 112.374 103.926 112.374V112.374ZM35.0494 78.6065C34.8465 78.6067 34.652 78.6877 34.5085 78.8316C34.365 78.9755 34.2843 79.1706 34.2841 79.3741V111.095C34.2843 111.298 34.365 111.493 34.5085 111.637C34.652 111.781 34.8465 111.862 35.0494 111.862H103.926C104.129 111.862 104.324 111.781 104.467 111.637C104.611 111.493 104.691 111.298 104.692 111.095V79.3741C104.691 79.1706 104.611 78.9755 104.467 78.8316C104.324 78.6877 104.129 78.6067 103.926 78.6065L35.0494 78.6065Z" fill="#20252A"/>
<path d="M103.416 71.1803H72.8041C72.4659 71.1799 72.1417 71.045 71.9026 70.8051C71.6635 70.5653 71.529 70.2401 71.5286 69.901V52.7645C71.529 52.4253 71.6635 52.1002 71.9026 51.8603C72.1417 51.6205 72.4659 51.4856 72.8041 51.4852H103.416C103.754 51.4856 104.078 51.6205 104.318 51.8603C104.557 52.1002 104.691 52.4253 104.692 52.7645V69.901C104.691 70.2402 104.557 70.5653 104.318 70.8051C104.078 71.045 103.754 71.1799 103.416 71.1803ZM72.804 51.9969C72.6011 51.9971 72.4066 52.0781 72.2631 52.222C72.1197 52.3659 72.039 52.561 72.0387 52.7645V69.901C72.039 70.1045 72.1197 70.2996 72.2631 70.4435C72.4066 70.5874 72.6011 70.6683 72.804 70.6686H103.416C103.619 70.6684 103.813 70.5874 103.957 70.4435C104.1 70.2996 104.181 70.1045 104.181 69.901V52.7645C104.181 52.561 104.1 52.3659 103.957 52.222C103.813 52.078 103.619 51.9971 103.416 51.9969L72.804 51.9969Z" fill="#E6E6E6"/>
<path d="M65.6614 153.824H35.0494C34.7113 153.823 34.3871 153.688 34.148 153.448C33.9088 153.209 33.7743 152.883 33.7739 152.544V120.568C33.7743 120.229 33.9088 119.904 34.148 119.664C34.3871 119.424 34.7113 119.289 35.0494 119.289H65.6614C65.9996 119.289 66.3238 119.424 66.5629 119.664C66.802 119.904 66.9365 120.229 66.9369 120.568V152.544C66.9365 152.883 66.802 153.209 66.5629 153.448C66.3238 153.688 65.9996 153.823 65.6614 153.824V153.824ZM35.0494 119.8C34.8465 119.8 34.652 119.881 34.5085 120.025C34.365 120.169 34.2843 120.364 34.2841 120.568V152.544C34.2843 152.748 34.365 152.943 34.5085 153.087C34.652 153.231 34.8465 153.312 35.0494 153.312H65.6614C65.8643 153.312 66.0589 153.231 66.2023 153.087C66.3458 152.943 66.4265 152.748 66.4267 152.544V120.568C66.4265 120.364 66.3458 120.169 66.2023 120.025C66.0589 119.881 65.8643 119.8 65.6614 119.8H35.0494Z" fill="#E6E6E6"/>
<path d="M103.416 153.824H72.8041C72.4659 153.823 72.1417 153.688 71.9026 153.448C71.6635 153.209 71.529 152.883 71.5286 152.544V120.568C71.529 120.229 71.6635 119.904 71.9026 119.664C72.1417 119.424 72.4659 119.289 72.8041 119.289H103.416C103.754 119.289 104.078 119.424 104.318 119.664C104.557 119.904 104.691 120.229 104.692 120.568V152.544C104.691 152.883 104.557 153.209 104.318 153.448C104.078 153.688 103.754 153.823 103.416 153.824V153.824ZM72.8041 119.8C72.6012 119.8 72.4066 119.881 72.2631 120.025C72.1197 120.169 72.039 120.364 72.0388 120.568V152.544C72.039 152.748 72.1197 152.943 72.2631 153.087C72.4066 153.231 72.6012 153.312 72.8041 153.312H103.416C103.619 153.312 103.813 153.231 103.957 153.087C104.1 152.943 104.181 152.748 104.181 152.544V120.568C104.181 120.364 104.1 120.169 103.957 120.025C103.813 119.881 103.619 119.8 103.416 119.8H72.8041Z" fill="#E6E6E6"/>
<path d="M45.2413 94.5429C48.1108 94.5429 50.437 92.2098 50.437 89.3317C50.437 86.4536 48.1108 84.1205 45.2413 84.1205C42.3718 84.1205 40.0456 86.4536 40.0456 89.3317C40.0456 92.2098 42.3718 94.5429 45.2413 94.5429Z" fill="#00734D"/>
<path d="M57.2408 85.8576C57.0112 85.8576 56.7909 85.9491 56.6285 86.1119C56.4661 86.2748 56.3749 86.4957 56.3749 86.7261C56.3749 86.9564 56.4661 87.1774 56.6285 87.3402C56.7909 87.5031 57.0112 87.5946 57.2408 87.5946H98.0641C98.2934 87.5941 98.5132 87.5023 98.6751 87.3395C98.8371 87.1767 98.928 86.9561 98.928 86.7261C98.928 86.4961 98.8371 86.2755 98.6751 86.1127C98.5132 85.9498 98.2934 85.8581 98.0641 85.8576H57.2408Z" fill="#00734D"/>
<path d="M57.2408 91.0688C57.1271 91.0685 57.0145 91.0908 56.9093 91.1342C56.8041 91.1776 56.7085 91.2414 56.628 91.3219C56.5474 91.4024 56.4834 91.498 56.4397 91.6032C56.3959 91.7085 56.3733 91.8214 56.373 91.9355C56.3728 92.0495 56.395 92.1625 56.4383 92.268C56.4816 92.3735 56.5451 92.4694 56.6254 92.5502C56.7056 92.631 56.801 92.6952 56.9059 92.739C57.0109 92.7829 57.1235 92.8056 57.2372 92.8059H74.8072C74.9211 92.806 75.0338 92.7837 75.1391 92.7402C75.2443 92.6966 75.3399 92.6327 75.4205 92.552C75.501 92.4713 75.565 92.3755 75.6086 92.27C75.6522 92.1646 75.6746 92.0515 75.6746 91.9373C75.6746 91.8231 75.6522 91.7101 75.6086 91.6046C75.565 91.4991 75.501 91.4033 75.4205 91.3226C75.3399 91.242 75.2443 91.178 75.1391 91.1345C75.0338 91.0909 74.9211 91.0686 74.8072 91.0688H57.2408Z" fill="#00734D"/>
<path d="M41.2561 99.4C40.5974 99.4 40.0613 99.7897 40.0613 100.269C40.0613 100.747 40.5974 101.137 41.2561 101.137H97.5797C98.2384 101.137 98.7744 100.747 98.7744 100.269C98.7744 99.7897 98.2384 99.4 97.5797 99.4H41.2561Z" fill="#CCCCCC"/>
<path d="M41.2561 104.611C40.5974 104.611 40.0613 105.001 40.0613 105.48C40.0613 105.959 40.5974 106.348 41.2561 106.348H97.5797C98.2384 106.348 98.7744 105.959 98.7744 105.48C98.7744 105.001 98.2384 104.611 97.5797 104.611H41.2561Z" fill="#CCCCCC"/>
<path d="M45.7515 39.2768C48.621 39.2768 50.9472 36.9436 50.9472 34.0656C50.9472 31.1875 48.621 28.8543 45.7515 28.8543C42.882 28.8543 40.5558 31.1875 40.5558 34.0656C40.5558 36.9436 42.882 39.2768 45.7515 39.2768Z" fill="#00734D"/>
<path d="M57.751 30.5914C57.5217 30.592 57.302 30.6837 57.14 30.8465C56.978 31.0093 56.8871 31.2299 56.8871 31.4599C56.8871 31.6899 56.978 31.9105 57.14 32.0734C57.302 32.2362 57.5217 32.3279 57.751 32.3285H98.5743C98.6881 32.3288 98.8009 32.3067 98.9061 32.2633C99.0114 32.22 99.1071 32.1562 99.1878 32.0757C99.2684 31.9952 99.3325 31.8996 99.3763 31.7942C99.4201 31.6889 99.4428 31.5759 99.443 31.4618C99.4433 31.3476 99.4211 31.2346 99.3777 31.129C99.3344 31.0235 99.2707 30.9276 99.1904 30.8468C99.11 30.7659 99.0146 30.7018 98.9095 30.658C98.8044 30.6141 98.6918 30.5915 98.578 30.5914C98.5767 30.5914 98.5755 30.5914 98.5743 30.5914H57.751Z" fill="#00734D"/>
<path d="M57.751 35.8026C57.5217 35.8032 57.302 35.8949 57.14 36.0577C56.978 36.2206 56.8871 36.4412 56.8871 36.6712C56.8871 36.9012 56.978 37.1218 57.14 37.2846C57.302 37.4474 57.5217 37.5392 57.751 37.5397H75.3174C75.4312 37.5401 75.5439 37.5179 75.6492 37.4746C75.7545 37.4312 75.8502 37.3674 75.9308 37.2869C76.0115 37.2065 76.0756 37.1108 76.1194 37.0055C76.1632 36.9001 76.1859 36.7871 76.1861 36.673C76.1863 36.5589 76.1641 36.4458 76.1208 36.3403C76.0774 36.2347 76.0138 36.1388 75.9334 36.058C75.8531 35.9771 75.7576 35.913 75.6526 35.8692C75.5475 35.8254 75.4348 35.8027 75.321 35.8026C75.3198 35.8026 75.3186 35.8026 75.3174 35.8026H57.751Z" fill="#00734D"/>
<path d="M65.6343 71.1834H36.9175L43.6755 59.443C43.7967 59.2326 43.9709 59.0578 44.1807 58.9363C44.3905 58.8148 44.6284 58.7509 44.8707 58.7509C45.1129 58.7509 45.3509 58.8148 45.5607 58.9363C45.7705 59.0578 45.9447 59.2326 46.0658 59.443L48.9528 64.4583L53.8616 55.9307C54.0132 55.6672 54.2313 55.4484 54.494 55.2963C54.7566 55.1442 55.0546 55.0641 55.3579 55.0641C55.6612 55.0641 55.9591 55.1442 56.2218 55.2963C56.4845 55.4484 56.7026 55.6672 56.8542 55.9307L65.6343 71.1834ZM37.8012 70.6717H64.7506L56.4123 56.1865C56.3055 56.0008 56.1518 55.8467 55.9667 55.7395C55.7816 55.6323 55.5717 55.5758 55.3579 55.5758C55.1442 55.5758 54.9342 55.6323 54.7491 55.7395C54.5641 55.8467 54.4104 56.0008 54.3035 56.1865L48.9528 65.4817L45.6239 59.6989C45.5476 59.5662 45.4378 59.4561 45.3056 59.3795C45.1734 59.3029 45.0234 59.2626 44.8707 59.2626C44.718 59.2626 44.568 59.3029 44.4358 59.3795C44.3036 59.4561 44.1938 59.5662 44.1175 59.6989L37.8012 70.6717Z" fill="#E6E6E6"/>
<path d="M102.369 71.1834H73.6519L80.4098 59.443C80.531 59.2326 80.7052 59.0578 80.915 58.9363C81.1248 58.8148 81.3628 58.7509 81.605 58.7509C81.8473 58.7509 82.0852 58.8148 82.295 58.9363C82.5048 59.0578 82.679 59.2326 82.8002 59.443L85.6871 64.4583L90.5959 55.9306C90.7475 55.6672 90.9656 55.4484 91.2283 55.2963C91.491 55.1442 91.7889 55.0641 92.0922 55.0641C92.3955 55.0641 92.6935 55.1442 92.9561 55.2963C93.2188 55.4484 93.4369 55.6672 93.5885 55.9306L102.369 71.1834ZM74.5355 70.6717H101.485L93.1466 56.1865C93.0398 56.0008 92.8861 55.8467 92.701 55.7395C92.5159 55.6323 92.3059 55.5758 92.0922 55.5758C91.8785 55.5758 91.6685 55.6323 91.4834 55.7395C91.2983 55.8467 91.1447 56.0008 91.0378 56.1865L85.6871 65.4817L82.3582 59.6989C82.2819 59.5662 82.1721 59.4561 82.0399 59.3795C81.9077 59.3029 81.7577 59.2626 81.605 59.2626C81.4523 59.2626 81.3023 59.3029 81.1701 59.3795C81.0379 59.4561 80.9281 59.5662 80.8518 59.6989L74.5355 70.6717Z" fill="#E6E6E6"/>
<path d="M65.6614 71.1803H35.0494C34.7113 71.1799 34.3871 71.045 34.148 70.8051C33.9088 70.5653 33.7743 70.2401 33.7739 69.901V52.7645C33.7743 52.4253 33.9088 52.1002 34.148 51.8603C34.3871 51.6205 34.7113 51.4856 35.0494 51.4852H65.6614C65.9996 51.4856 66.3238 51.6205 66.5629 51.8603C66.802 52.1002 66.9365 52.4253 66.9369 52.7645V69.901C66.9365 70.2402 66.802 70.5653 66.5629 70.8051C66.3238 71.045 65.9996 71.1799 65.6614 71.1803V71.1803ZM35.0494 51.9969C34.8465 51.9971 34.652 52.0781 34.5085 52.222C34.365 52.3659 34.2843 52.561 34.2841 52.7645V69.901C34.2843 70.1045 34.365 70.2996 34.5085 70.4435C34.652 70.5874 34.8465 70.6683 35.0494 70.6686H65.6614C65.8643 70.6683 66.0588 70.5874 66.2023 70.4435C66.3458 70.2996 66.4265 70.1045 66.4267 69.901V52.7645C66.4265 52.561 66.3458 52.3659 66.2023 52.222C66.0588 52.078 65.8643 51.9971 65.6614 51.9969L35.0494 51.9969Z" fill="#E6E6E6"/>
<path d="M41.5722 125.883C41.4584 125.883 41.3456 125.905 41.2404 125.948C41.1352 125.992 41.0395 126.056 40.959 126.137C40.8784 126.217 40.8145 126.313 40.7709 126.419C40.7273 126.524 40.7048 126.637 40.7048 126.751C40.7048 126.865 40.7273 126.978 40.7709 127.084C40.8145 127.189 40.8784 127.285 40.959 127.366C41.0395 127.447 41.1352 127.511 41.2404 127.554C41.3456 127.598 41.4584 127.62 41.5722 127.62H59.1386C59.3683 127.62 59.5886 127.528 59.751 127.365C59.9134 127.202 60.0046 126.982 60.0046 126.751C60.0046 126.521 59.9134 126.3 59.751 126.137C59.5886 125.974 59.3683 125.883 59.1386 125.883H41.5722Z" fill="#E6E6E6"/>
<path d="M41.5722 131C41.4584 131 41.3456 131.022 41.2404 131.066C41.1352 131.109 41.0395 131.173 40.959 131.254C40.8784 131.334 40.8145 131.43 40.7709 131.536C40.7273 131.641 40.7048 131.754 40.7048 131.868C40.7048 131.983 40.7273 132.096 40.7709 132.201C40.8145 132.307 40.8784 132.402 40.959 132.483C41.0395 132.564 41.1352 132.628 41.2404 132.671C41.3456 132.715 41.4584 132.737 41.5722 132.737H59.1386C59.368 132.737 59.5879 132.645 59.75 132.482C59.9121 132.319 60.0031 132.099 60.0031 131.868C60.0031 131.638 59.9121 131.418 59.75 131.255C59.5879 131.092 59.368 131 59.1386 131H41.5722Z" fill="#E6E6E6"/>
<path d="M50.3554 147.23C49.2774 147.23 48.2235 146.909 47.3271 146.308C46.4308 145.707 45.7321 144.854 45.3196 143.855C44.907 142.856 44.7991 141.756 45.0094 140.696C45.2197 139.635 45.7389 138.661 46.5012 137.897C47.2635 137.132 48.2347 136.611 49.292 136.4C50.3494 136.19 51.4453 136.298 52.4413 136.712C53.4373 137.125 54.2886 137.826 54.8876 138.725C55.4865 139.624 55.8062 140.681 55.8062 141.762C55.8045 143.212 55.2297 144.602 54.2079 145.626C53.186 146.651 51.8006 147.228 50.3554 147.23V147.23ZM50.3554 136.807C49.3783 136.807 48.4231 137.098 47.6106 137.642C46.7981 138.187 46.1649 138.961 45.7909 139.866C45.417 140.772 45.3192 141.768 45.5098 142.729C45.7004 143.69 46.171 144.573 46.8619 145.266C47.5529 145.959 48.4332 146.431 49.3916 146.623C50.3499 146.814 51.3433 146.716 52.2461 146.341C53.1489 145.966 53.9205 145.33 54.4633 144.516C55.0062 143.701 55.296 142.743 55.296 141.762V141.762C55.2944 140.449 54.7734 139.189 53.8472 138.26C52.921 137.331 51.6653 136.809 50.3554 136.807V136.807Z" fill="#E6E6E6"/>
<path d="M96.8933 147.23C97.0071 147.23 97.1199 147.207 97.2251 147.164C97.3304 147.12 97.426 147.056 97.5066 146.976C97.5871 146.895 97.651 146.799 97.6946 146.694C97.7382 146.588 97.7607 146.475 97.7607 146.361C97.7607 146.247 97.7382 146.134 97.6946 146.028C97.651 145.923 97.5871 145.827 97.5066 145.746C97.426 145.666 97.3304 145.602 97.2251 145.558C97.1199 145.515 97.0071 145.492 96.8933 145.492H79.3269C79.0972 145.492 78.877 145.584 78.7146 145.747C78.5522 145.91 78.4609 146.131 78.4609 146.361C78.4609 146.591 78.5522 146.812 78.7146 146.975C78.877 147.138 79.0972 147.23 79.3269 147.23H96.8933Z" fill="#E6E6E6"/>
<path d="M96.8933 142.112C97.0071 142.113 97.1199 142.09 97.2251 142.047C97.3304 142.003 97.426 141.939 97.5066 141.858C97.5871 141.778 97.651 141.682 97.6946 141.576C97.7382 141.471 97.7607 141.358 97.7607 141.244C97.7607 141.13 97.7382 141.017 97.6946 140.911C97.651 140.806 97.5871 140.71 97.5066 140.629C97.426 140.548 97.3304 140.484 97.2251 140.441C97.1199 140.397 97.0071 140.375 96.8933 140.375H79.3269C79.0972 140.375 78.877 140.467 78.7146 140.63C78.5522 140.792 78.4609 141.013 78.4609 141.244C78.4609 141.474 78.5522 141.695 78.7146 141.858C78.877 142.021 79.0972 142.112 79.3269 142.112H96.8933Z" fill="#E6E6E6"/>
<path d="M88.1101 125.883C89.1881 125.883 90.242 126.203 91.1384 126.804C92.0347 127.405 92.7334 128.259 93.1459 129.258C93.5585 130.257 93.6664 131.356 93.4561 132.416C93.2458 133.477 92.7267 134.451 91.9644 135.216C91.202 135.98 90.2308 136.501 89.1735 136.712C88.1161 136.923 87.0201 136.814 86.0241 136.401C85.0281 135.987 84.1769 135.286 83.5779 134.387C82.979 133.488 82.6593 132.431 82.6593 131.35V131.35C82.6609 129.9 83.2357 128.511 84.2576 127.486C85.2795 126.461 86.6649 125.884 88.1101 125.883V125.883ZM88.1101 136.305C89.0872 136.305 90.0424 136.014 90.8549 135.47C91.6674 134.925 92.3006 134.152 92.6746 133.246C93.0485 132.341 93.1464 131.344 92.9557 130.383C92.7651 129.422 92.2946 128.539 91.6036 127.846C90.9127 127.153 90.0323 126.681 89.074 126.49C88.1156 126.298 87.1222 126.397 86.2194 126.772C85.3167 127.147 84.545 127.782 84.0022 128.597C83.4593 129.412 83.1695 130.37 83.1695 131.35V131.35C83.171 132.663 83.6921 133.923 84.6183 134.852C85.5445 135.781 86.8002 136.304 88.1101 136.305V136.305Z" fill="#E6E6E6"/>
<path d="M143.656 174.305H139.714L137.839 159.057L143.656 159.057L143.656 174.305Z" fill="#FFB8B8"/>
<path d="M135.738 173.175H144.5V177.975H132.113V176.811C132.113 175.846 132.495 174.922 133.175 174.24C133.855 173.558 134.777 173.175 135.738 173.175V173.175Z" fill="#2F2E41"/>
<path d="M159.408 174.305H155.467L153.592 159.057L159.409 159.057L159.408 174.305Z" fill="#FFB8B8"/>
<path d="M151.491 173.175H160.253V177.975H147.866V176.811C147.866 175.846 148.248 174.922 148.927 174.24C149.607 173.558 150.529 173.175 151.491 173.175V173.175Z" fill="#2F2E41"/>
<path d="M136.789 130.349C137.111 130.047 137.362 129.678 137.526 129.267C137.689 128.857 137.761 128.416 137.737 127.974C137.712 127.533 137.591 127.102 137.382 126.713C137.174 126.324 136.883 125.985 136.529 125.721L138.218 119.022L134.41 117L132.157 126.493C131.754 127.118 131.593 127.869 131.705 128.605C131.817 129.341 132.195 130.009 132.766 130.485C133.336 130.96 134.061 131.209 134.803 131.184C135.545 131.159 136.251 130.862 136.789 130.349V130.349Z" fill="#FFB8B8"/>
<path d="M160.81 118.65L160.488 141.221L160.167 170.885L153.094 170.24L149.558 129.29L145.057 170.24H137.756L137.02 128.968L139.592 119.939L160.81 118.65Z" fill="#2F2E41"/>
<path d="M138.887 120.077L138.784 120.03L142.814 92.3784L140.765 84.0204C140.659 83.5856 140.715 83.1267 140.923 82.7306C141.132 82.3346 141.478 82.029 141.896 81.8717L145.582 80.4851L146.885 76.8923L157.162 78.003L157.415 80.8108C158.528 81.1691 167.699 84.2323 167.066 87.7227C166.442 91.1678 162.754 102.007 162.567 102.556L161.921 118.1L161.842 118.14C161.746 118.188 154.663 121.681 146.967 121.681C144.257 121.681 141.47 121.247 138.887 120.077Z" fill="#20252A"/>
<path d="M132.024 122.98L135.264 102.182C135.284 102.059 137.201 89.8842 137.836 86.0586C138.493 82.1089 141.541 82.0632 141.572 82.0632H143.249L145.212 90.9198L141.346 108.69L137.78 123.416L132.024 122.98Z" fill="#20252A"/>
<path d="M153.04 120.927C153.061 120.486 153.178 120.054 153.383 119.663C153.589 119.272 153.877 118.93 154.228 118.663C154.578 118.395 154.984 118.208 155.414 118.115C155.845 118.022 156.291 118.024 156.721 118.122L160.707 112.487L164.712 114.082L158.971 121.96C158.759 122.673 158.293 123.283 157.662 123.675C157.031 124.067 156.279 124.213 155.548 124.086C154.817 123.958 154.158 123.567 153.696 122.984C153.234 122.402 153 121.67 153.04 120.927V120.927Z" fill="#FFB8B8"/>
<path d="M157.413 116.081L164.501 104.125L161.613 96.4015L165.546 85.8821L165.691 85.9445C165.786 85.9854 168.021 86.9856 168.352 90.5674L172.872 104.814L160.81 120.51L157.413 116.081Z" fill="#20252A"/>
<path d="M158.113 71.2526C160.073 67.6561 158.756 63.1468 155.17 61.1808C151.584 59.2148 147.088 60.5365 145.128 64.133C143.168 67.7295 144.486 72.2388 148.072 74.2048C151.657 76.1708 156.153 74.8491 158.113 71.2526Z" fill="#FFB8B8"/>
<path d="M146.653 64.0779C147.419 64.9871 148.715 65.2436 149.911 65.3488C152.339 65.5624 155.871 65.2159 158.244 64.6664C158.413 66.313 157.951 68.0884 158.918 69.4429C159.372 67.8031 159.635 66.1164 159.704 64.4161C159.733 63.6869 159.722 62.9325 159.426 62.2631C159.131 61.5937 158.486 61.0254 157.744 61.0195C158.296 60.6 158.941 60.3231 159.625 60.2132L157.275 59.029L157.878 58.4078L153.625 58.1467L154.857 57.3617C153.003 57.1061 151.127 57.0467 149.26 57.1845C148.393 57.2485 147.487 57.3709 146.785 57.8746C146.082 58.3783 145.677 59.3795 146.113 60.1191C145.567 60.2089 145.053 60.4371 144.62 60.782C144.186 61.1268 143.848 61.5769 143.637 62.0896C143.323 62.8858 143.352 63.7701 143.449 64.6184C143.609 65.9753 143.923 67.3093 144.386 68.5945" fill="#2F2E41"/>
</g>
<defs>
<clipPath id="clip0">
<rect width="187" height="178" fill="white"/>
</clipPath>
</defs>
</svg>
